<svg xmlns="http://www.w3.org/2000/svg" version="1.1" xmlns:xlink="http://www.w3.org/1999/xlink" xmlns:svgjs="http://svgjs.dev/svgjs" width="1500" height="1639" viewBox="0 0 1500 1639"><g transform="matrix(1,0,0,1,1.6020957331483032,0.6647881011533627)"><svg viewBox="0 0 226 247" data-background-color="#97d5ee" preserveAspectRatio="xMidYMid meet" height="1639" width="1500" xmlns="http://www.w3.org/2000/svg" xmlns:xlink="http://www.w3.org/1999/xlink"><g id="tight-bounds" transform="matrix(1,0,0,1,-0.24129004994017578,-0.09997365579206985)"><svg viewBox="0 0 226.4826724737345 247.2" height="247.2" width="226.4826724737345"><g><svg viewBox="0 0 226.4826724737345 247.2" height="247.2" width="226.4826724737345"><g><svg viewBox="0 0 226.4826724737345 247.2" height="247.2" width="226.4826724737345"><g id="textblocktransform"><svg viewBox="0 0 226.4826724737345 247.2" height="247.2" width="226.4826724737345" id="textblock"><g><svg viewBox="0 0 226.4826724737345 247.2" height="247.2" width="226.4826724737345"><path d="M225.952 53.02C224.888 27.36 221.853 20.227 221.853 20.227 212.537-6.202 200.91-0.506 190.465 3.292 172.023 3.446 153.656 9.091 135.258 12.119 96.639 12.581 57.691 4.986 19.264 23.717 15.655 29.464-3.745 24.846 0.642 56.304 1.792 69.39 5.987 83.913 5.859 95.922 6.434 98.026 7.233 93.202 7.574 96.23 8.766 104.39 10.715 100.541 12.312 105.365 10.086 118.246 11.683 128.971 13.206 140.21 10.523 143.135 7.084 141.749 5.54 151.449 5.38 158.479 4.518 157.145 3.57 156.837 2.878 156.632 1.483 157.402 1.717 159.608 2.516 167.152-0.912 171.514 1.238 178.904-0.242 186.91 2.26 193.838 1.92 202.511 1.877 204.255 2.111 205.744 2.484 206.154 4.134 208.361 1.728 212.672 1.984 217.342 18.913 249.262 37.28 227.195 54.625 241.872 59.128 231.608 55.743 245.516 57.542 243.36 58.947 240.846 59.97 251.263 61.556 245.362 61.801 243.668 61.428 239.665 62.301 240.435 62.759 240.846 63.164 240.743 63.228 238.382 63.323 234.841 62.482 237.048 62.259 235.201 64.676 225.861 64.079 248.081 66.347 247.158 66.241 244.438 65.581 240.538 66.933 241.051 68.275 237.151 68.317 233.918 69.51 242.693 69.552 244.592 69.765 245.926 70.106 246.85 73.833 237.305 77.538 250.237 81.445 245.926 83.841 241.205 86.141 248.492 88.569 246.696 89.42 245.259 90.283 242.693 91.103 247.004 101.143 247.928 111.844 244.079 121.363 247.158 146.799 241.41 173.982 249.518 200.803 241.923 207.128 238.998 213.697 234.841 219.862 231.506 219.862 231.506 224.856 222.371 224.856 181.316S225.92 145.393 226.08 112.703C226.24 80.013 226.985 78.679 225.92 53.02Z" opacity="1" fill="#db3e25" data-fill-palette-color="tertiary"></path><g transform="matrix(1,0,0,1,55.76832000000001,26.230666666666668)"><svg width="114.94603247373449" viewBox="3.1 -35 20.599999999999998 34.9" height="194.73866666666666" data-palette-color="#97d5ee"><path d="M5.7-34.5L9.5-34.6 12.7-34.7Q13.3-34.7 14.05-34.75 14.8-34.8 15.55-34.85L15.55-34.85Q17.25-35 18.35-35L18.35-35 22.55-34.95Q23.7-34.95 23.7-34.2L23.7-34.2 23.7-31.7Q23.7-31.25 23.53-31.18 23.35-31.1 22.8-31.1L22.8-31.1Q22.15-31.1 21.65-31.15L21.65-31.15 18.45-31.2Q16.55-31.2 14.75-31L14.75-31 12.3-30.85 12.15-29.95Q12.05-28.85 12.05-28.2L12.05-28.2 12-23.75 11.95-21.2 11.95-20Q13-20 13.5-20.05L13.5-20.05 15.9-20.1 17.9-20.15Q18.6-20.2 19.85-20.2L19.85-20.2Q20.65-20.2 20.93-20 21.2-19.8 21.2-19.35L21.2-19.35 21.15-17.7Q21.15-17.3 20.93-17.15 20.7-17 20-17L20-17Q19.1-17 18.5-17.05L18.5-17.05 16.5-17.1 11.85-17.1Q11.85-15.8 11.9-15.2L11.9-15.2 11.95-12.05 11.9-9.6Q11.8-8 11.8-7.15L11.8-7.15 11.85-1.25Q11.85-0.6 11.58-0.35 11.3-0.1 10.7-0.1L10.7-0.1Q10.45-0.1 9.55-0.2L9.55-0.2Q9.1-0.25 7.7-0.25L7.7-0.25 4.05-0.2Q3.5-0.25 3.38-0.4 3.25-0.55 3.25-0.83 3.25-1.1 3.25-1.2L3.25-1.2 3.2-3.85Q3.2-4.55 3.15-5.05L3.15-5.05 3.1-8.45Q3.1-9.2 3.18-9.98 3.25-10.75 3.25-11.1L3.25-11.1Q3.4-12.25 3.4-13.7L3.4-13.7 3.35-19.4 3.4-22.7Q3.5-25 3.5-26.2L3.5-26.2Q3.5-29 3.4-33.1L3.4-33.1Q3.4-34 3.63-34.3 3.85-34.6 4.3-34.6L4.3-34.6Q4.6-34.6 4.93-34.55 5.25-34.5 5.7-34.5L5.7-34.5Z" opacity="1" transform="matrix(1,0,0,1,0,0)" fill="#97d5ee" class="wordmark-text-0" data-fill-palette-color="quaternary" id="text-0"></path></svg></g></svg></g></svg></g></svg></g><g></g></svg></g><defs></defs></svg><rect width="226.4826724737345" height="247.2" fill="none" stroke="none" visibility="hidden"></rect></g></svg></g></svg>